<?xml version="1.0" encoding="utf-8"?>
<!-- Generator: Adobe Illustrator 27.3.1, SVG Export Plug-In . SVG Version: 6.00 Build 0)  -->
<svg version="1.1" id="Layer_1" xmlns="http://www.w3.org/2000/svg" xmlns:xlink="http://www.w3.org/1999/xlink" x="0px" y="0px"
	 viewBox="0 0 900 300" style="enable-background:new 0 0 900 300;" xml:space="preserve">
<style type="text/css">
	.st0{fill:#FFFFFF;}
	.st1{fill-rule:evenodd;clip-rule:evenodd;fill:#30A2DC;}
	.st2{fill:#1C1C1C;}
</style>
<rect class="st0" width="900" height="300"/>
<g id="Layer_1-2">
	<path class="st1" d="M237.63,117.67h-1.95v9.78h1.95V117.67z"/>
	<path class="st1" d="M245.92,117.67h-1.95v9.78h1.95V117.67z"/>
	<path class="st1" d="M257.28,99.09l-2-3.33l-33.02,18.58l2,3.33L257.28,99.09z"/>
	<path class="st1" d="M257.08,99.09l2-3.33l33.02,18.63l-2,3.33L257.08,99.09z"/>
	<path class="st1" d="M297.93,117.72v-3.84h-90.51v3.84H297.93z"/>
	<path class="st1" d="M267.21,172.29v-57.23h3.94v60.05c-1.07-1.18-2.41-2.05-3.94-2.76V172.29z"/>
	<path class="st1" d="M255.34,171.32V90.54h3.94v81.24C258.15,171.27,255.44,171.32,255.34,171.32z"/>
	<path class="st1" d="M217.81,179.36c-4.81-3.48-8.04-9.06-8.04-15.36c0-3.33,0.92-6.65,2.61-9.52h33.84
		c1.74,2.87,2.61,6.19,2.61,9.52c0,2.92-0.41,5.63-1.59,8.09c-2.56-2.41-6.35-3.43-10.14-3.43c-6.76,0-12.54,4.1-14.08,10.24
		c-0.51,0-0.87-0.1-1.38-0.1C220.37,178.79,219.09,179.05,217.81,179.36z"/>
	<path class="st1" d="M234.4,131.75h-10.24v10.03h10.24V131.75z"/>
	<path class="st1" d="M222.88,131.75h-10.24v10.03h10.24V131.75z"/>
	<path class="st1" d="M222.88,142.96h-10.24v10.03h10.24V142.96z"/>
	<path class="st1" d="M234.4,142.96h-10.24v10.03h10.24V142.96z"/>
	<path class="st1" d="M245.92,142.96h-10.24v10.03h10.24V142.96z"/>
	<path class="st1" d="M245.92,126.37h-10.24v10.03h10.24V126.37z"/>
	<path class="st1" d="M224.73,180.89c1.38-5.78,6.76-10.14,13.16-10.14c4.1,0,7.78,1.79,10.29,4.61c2.15-1.48,4.76-2.3,7.63-2.3
		c7.42,0,13.46,5.89,13.46,13.16c0,1.48-0.26,2.92-0.72,4.3c1.64,2.15,2.66,4.91,2.66,7.83c0,7.27-6.04,13.16-13.46,13.16
		c-3.28,0-6.3-1.13-8.6-3.02c-2.46,3.33-6.45,5.58-11.01,5.58c-5.22,0-9.78-2.92-12.03-7.17c-0.92,0.2-1.84,0.31-2.82,0.31
		c-7.42,0-13.51-5.89-13.51-13.16s6.04-13.16,13.51-13.16C223.75,180.89,224.26,180.89,224.73,180.89z"/>
	<path class="st2" d="M297.01,144.85c1.28-1.64,3.02-3.02,5.27-4.15c2.2-1.13,4.71-1.69,7.53-1.69c3.17,0,6.09,0.77,8.7,2.3
		c2.66,1.48,4.76,3.63,6.25,6.4c1.48,2.76,2.25,5.89,2.25,9.47c0,3.58-0.77,6.76-2.25,9.62c-1.48,2.82-3.58,4.97-6.25,6.55
		c-2.61,1.54-5.53,2.3-8.7,2.3c-2.82,0-5.27-0.51-7.47-1.59c-2.15-1.13-3.94-2.51-5.32-4.15V192h-7.58v-52.37h7.58
		C297.01,139.63,297.01,144.85,297.01,144.85z M319.27,157.24c0-2.46-0.51-4.56-1.59-6.3c-1.02-1.79-2.41-3.17-4.15-4.04
		c-1.69-0.92-3.48-1.43-5.48-1.43s-3.74,0.46-5.48,1.43c-1.69,0.92-3.07,2.3-4.15,4.15c-1.02,1.79-1.54,3.94-1.54,6.4
		c0,2.46,0.51,4.61,1.54,6.45c1.07,1.79,2.46,3.17,4.15,4.15c1.74,0.92,3.53,1.43,5.48,1.43c1.95,0,3.79-0.46,5.48-1.43
		c1.74-0.97,3.12-2.41,4.15-4.25c1.07-1.84,1.59-3.99,1.59-6.45V157.24z"/>
	<path class="st2" d="M350.45,175.77c-3.48,0-6.6-0.77-9.37-2.25c-2.82-1.54-4.97-3.69-6.6-6.45c-1.59-2.82-2.41-6.04-2.41-9.68
		s0.82-6.81,2.46-9.62s3.89-4.97,6.71-6.45c2.82-1.48,5.99-2.25,9.52-2.25s6.65,0.77,9.52,2.25c2.87,1.48,5.07,3.63,6.71,6.45
		c1.64,2.82,2.46,5.99,2.46,9.62s-0.82,6.81-2.51,9.62c-1.69,2.82-3.99,4.97-6.91,6.5C357.16,175,353.93,175.77,350.45,175.77z
		 M350.45,169.37c1.95,0,3.79-0.46,5.48-1.33c1.74-0.92,3.12-2.25,4.2-4.04c1.07-1.79,1.59-3.99,1.59-6.55
		c0-2.56-0.51-4.76-1.54-6.5c-1.02-1.79-2.35-3.17-4.04-4.04c-1.69-0.92-3.48-1.33-5.48-1.33s-3.79,0.46-5.48,1.33
		c-1.64,0.92-2.97,2.25-3.94,4.04c-0.97,1.74-1.48,3.94-1.48,6.5c0,3.84,0.97,6.81,2.97,8.91c2.05,2.05,4.61,3.07,7.63,3.07
		L350.45,169.37z"/>
	<path class="st2" d="M384.54,144.8c1.13-1.79,2.56-3.23,4.4-4.2c1.84-1.02,4.04-1.54,6.6-1.54v7.63h-1.95
		c-2.97,0-5.22,0.72-6.81,2.2c-1.48,1.48-2.25,3.99-2.25,7.63v18.68h-7.58v-35.53h7.58v5.17V144.8z"/>
	<path class="st2" d="M411.37,145.62v19.66c0,1.33,0.31,2.3,0.92,2.92c0.67,0.56,1.79,0.82,3.33,0.82h4.66v6.14h-5.99
		c-3.43,0-6.04-0.77-7.83-2.3c-1.84-1.54-2.71-4.04-2.71-7.53v-19.66h-4.35v-5.99h4.35v-8.86h7.63v8.86h8.91v5.99h-8.91
		L411.37,145.62z"/>
	<path class="st2" d="M424.73,157.24c0-3.58,0.77-6.71,2.25-9.47c1.54-2.76,3.63-4.86,6.25-6.4c2.66-1.54,5.58-2.3,8.8-2.3
		c2.87,0,5.38,0.56,7.53,1.69c2.15,1.07,3.89,2.41,5.17,4.04v-5.17h7.63v35.53h-7.63v-5.27c-1.28,1.69-3.02,3.07-5.27,4.2
		c-2.2,1.13-4.76,1.69-7.58,1.69c-3.17,0-6.04-0.77-8.65-2.3c-2.61-1.59-4.71-3.79-6.25-6.55c-1.48-2.82-2.25-6.04-2.25-9.62
		L424.73,157.24z M454.73,157.39c0-2.46-0.51-4.56-1.59-6.4c-1.02-1.79-2.35-3.17-4.04-4.15c-1.69-0.92-3.48-1.43-5.48-1.43
		s-3.79,0.46-5.48,1.43c-1.69,0.92-3.07,2.25-4.15,4.04c-1.02,1.74-1.54,3.89-1.54,6.3s0.51,4.61,1.54,6.45
		c1.07,1.84,2.46,3.28,4.15,4.25c1.74,0.92,3.53,1.43,5.48,1.43s3.79-0.46,5.48-1.43c1.69-0.92,3.02-2.3,4.04-4.15
		c1.08-1.84,1.59-3.99,1.59-6.45V157.39z"/>
	<path class="st2" d="M476.23,134.92c-1.38,0-2.51-0.46-3.48-1.33c-0.92-0.92-1.38-2-1.38-3.38s0.46-2.46,1.38-3.38
		s2.1-1.33,3.48-1.33c1.38,0,2.46,0.46,3.38,1.33c0.92,0.92,1.38,2,1.38,3.38c0,1.38-0.46,2.46-1.38,3.38
		C478.68,134.51,477.56,134.92,476.23,134.92z M479.96,139.63v35.53h-7.58v-35.53H479.96z"/>
	<path class="st2" d="M508.37,139.07c2.87,0,5.48,0.56,7.73,1.74c2.3,1.18,4.1,2.87,5.38,5.17c1.28,2.3,1.95,5.02,1.95,8.24v20.94
		h-7.53V155.3c0-3.17-0.82-5.63-2.46-7.27c-1.64-1.74-3.89-2.56-6.71-2.56c-2.82,0-5.12,0.87-6.81,2.56
		c-1.64,1.69-2.46,4.1-2.46,7.27v19.86h-7.58v-35.53h7.58v4.04c1.23-1.48,2.82-2.61,4.71-3.43c1.95-0.82,3.99-1.23,6.19-1.23
		L508.37,139.07z"/>
	<path class="st2" d="M566.73,156.52c0,1.33-0.1,2.56-0.26,3.63h-28c0.2,2.82,1.33,5.12,3.28,6.86c1.95,1.74,4.35,2.56,7.17,2.56
		c4.1,0,6.96-1.64,8.65-4.97h8.19c-1.13,3.28-3.12,5.94-6.04,8.04c-2.87,2.05-6.5,3.07-10.8,3.07c-3.48,0-6.65-0.77-9.47-2.25
		c-2.76-1.54-4.91-3.69-6.5-6.45c-1.54-2.82-2.3-6.04-2.3-9.68s0.77-6.86,2.25-9.62c1.54-2.82,3.69-4.97,6.45-6.45
		c2.82-1.48,5.99-2.25,9.57-2.25s6.55,0.72,9.27,2.2c2.71,1.48,4.81,3.53,6.3,6.19C565.96,150.02,566.73,153.04,566.73,156.52z
		 M558.8,154.22c0-2.71-1.02-4.86-2.97-6.5c-1.95-1.64-4.35-2.46-7.27-2.46c-2.61,0-4.86,0.82-6.71,2.46
		c-1.84,1.59-2.97,3.74-3.33,6.5H558.8z"/>
	<path class="st2" d="M581.78,144.8c1.13-1.79,2.56-3.23,4.4-4.2c1.84-1.02,4.04-1.54,6.6-1.54v7.63h-1.95
		c-2.97,0-5.22,0.72-6.81,2.2c-1.48,1.48-2.25,3.99-2.25,7.63v18.68h-7.58v-35.53h7.58v5.17V144.8z"/>
	<path class="st2" d="M602.77,175.62c-1.38,0-2.51-0.46-3.48-1.33c-0.92-0.92-1.38-2-1.38-3.38c0-1.38,0.46-2.46,1.38-3.38
		c0.92-0.92,2.1-1.33,3.48-1.33s2.46,0.46,3.38,1.33c0.92,0.92,1.38,2,1.38,3.38c0,1.38-0.46,2.46-1.38,3.38
		S604.1,175.62,602.77,175.62z"/>
	<path class="st2" d="M619.61,134.92c-1.38,0-2.51-0.46-3.48-1.33c-0.92-0.92-1.38-2-1.38-3.38s0.46-2.46,1.38-3.38
		s2.1-1.33,3.48-1.33s2.46,0.46,3.38,1.33c0.92,0.92,1.38,2,1.38,3.38c0,1.38-0.46,2.46-1.38,3.38S620.94,134.92,619.61,134.92z
		 M623.35,139.63v35.53h-7.58v-35.53H623.35z"/>
	<path class="st2" d="M649.2,175.77c-3.48,0-6.6-0.77-9.37-2.25c-2.82-1.54-4.97-3.69-6.6-6.45c-1.59-2.82-2.41-6.04-2.41-9.68
		s0.82-6.81,2.46-9.62c1.64-2.82,3.89-4.97,6.71-6.45c2.82-1.48,5.99-2.25,9.52-2.25s6.65,0.77,9.52,2.25
		c2.82,1.48,5.07,3.63,6.71,6.45c1.64,2.82,2.46,5.99,2.46,9.62s-0.82,6.81-2.51,9.62c-1.69,2.82-3.99,4.97-6.91,6.5
		C655.9,175,652.68,175.77,649.2,175.77z M649.2,169.37c1.95,0,3.79-0.46,5.48-1.33c1.74-0.92,3.12-2.25,4.2-4.04
		s1.59-3.99,1.59-6.55c0-2.56-0.51-4.76-1.54-6.5c-1.02-1.79-2.35-3.17-4.04-4.04c-1.69-0.92-3.48-1.33-5.48-1.33
		c-2,0-3.79,0.46-5.48,1.33c-1.64,0.92-2.97,2.25-3.94,4.04c-0.97,1.74-1.48,3.94-1.48,6.5c0,3.84,0.97,6.81,2.97,8.91
		c2.05,2.05,4.61,3.07,7.63,3.07L649.2,169.37z"/>
</g>
</svg>
